<?xml version="1.0" encoding="utf-8"?>
<!-- Generator: Adobe Illustrator 23.0.3, SVG Export Plug-In . SVG Version: 6.00 Build 0)  -->
<svg version="1.1"
	 id="svg8" xmlns:cc="http://creativecommons.org/ns#" xmlns:dc="http://purl.org/dc/elements/1.1/" xmlns:inkscape="http://www.inkscape.org/namespaces/inkscape" xmlns:rdf="http://www.w3.org/1999/02/22-rdf-syntax-ns#" xmlns:sodipodi="http://sodipodi.sourceforge.net/DTD/sodipodi-0.dtd" xmlns:svg="http://www.w3.org/2000/svg"
	 xmlns="http://www.w3.org/2000/svg" xmlns:xlink="http://www.w3.org/1999/xlink" x="0px" y="0px"
	 viewBox="79.055 -221.464 841.89 595.275" enable-background="new 79.055 -221.464 841.89 595.275" xml:space="preserve">
<sodipodi:namedview  bordercolor="#666666" borderopacity="1.0" fit-margin-bottom="0" fit-margin-left="0" fit-margin-right="0" fit-margin-top="0" id="base" inkscape:current-layer="layer1" inkscape:cx="-283.93887" inkscape:cy="214.35188" inkscape:document-units="px" inkscape:pageopacity="0.0" inkscape:pageshadow="2" inkscape:window-height="1017" inkscape:window-maximized="1" inkscape:window-width="1920" inkscape:window-x="1912" inkscape:window-y="-8" inkscape:zoom="0.24748737" pagecolor="#ffffff" showgrid="false" units="px">
	<inkscape:grid  id="grid823" originx="44.662046" originy="186.59994" type="xygrid"></inkscape:grid>
</sodipodi:namedview>
<g id="layer1" transform="translate(44.662086,-443.29114)" inkscape:groupmode="layer" inkscape:label="Layer 1">
	<path id="path80319" inkscape:connector-curvature="0" fill="#32DE84" d="M978.302,482.96l26.74-46.321
		c1.508-2.597,0.597-5.896-1.966-7.404c-2.561-1.509-5.895-0.632-7.369,1.964l-27.091,46.92
		c-20.668-9.441-43.934-14.705-68.954-14.705c-25.022,0-48.288,5.264-68.956,14.705l-27.093-46.92
		c-1.508-2.596-4.806-3.473-7.402-1.964c-2.598,1.508-3.476,4.807-1.966,7.404l26.74,46.321
		c-46.111,24.987-77.342,71.658-82.501,126.297h322.354C1055.679,554.619,1024.449,507.947,978.302,482.96L978.302,482.96z
		 M825.652,563.989c-7.475,0-13.51-6.072-13.51-13.512c0-7.474,6.07-13.511,13.51-13.511c7.475,0,13.509,6.072,13.509,13.511
		C839.198,557.917,833.127,563.989,825.652,563.989z M973.635,563.989c-7.475,0-13.51-6.072-13.51-13.512
		c0-7.474,6.07-13.511,13.51-13.511c7.475,0,13.511,6.072,13.511,13.511C987.181,557.917,981.109,563.989,973.635,563.989z"/>
	<g id="g80302" transform="matrix(0.90730795,0,0,0.90730795,239.32719,93.617735)">
		<path id="path825" inkscape:connector-curvature="0" d="M-365.359,432.604c-31.516,0-63.921,25.254-63.921,69.459
			c0,40.411,28.493,68.956,63.921,68.956c29.246,0,42.28-19.631,42.28-19.631v8.558c0,4.045,3.824,8.556,8.557,8.556h21.139V435.624
			h-29.696v16.861C-323.079,452.485-336.224,432.604-365.359,432.604L-365.359,432.604z M-360.068,459.775
			c25.943,0,39.553,22.815,39.553,42.277c0,21.678-16.16,42.264-39.498,42.264c-19.512,0-39.055-15.802-39.055-42.549
			C-399.069,477.621-382.25,459.775-360.068,459.775z"/>
		<path id="path829" inkscape:connector-curvature="0" sodipodi:nodetypes="ccccccccccccccc" d="M-252.11,568.502
			c-4.563,0-8.557-3.273-8.557-8.556V435.624h29.696v16.444c6.73-10.115,19.876-19.505,40.055-19.505
			c32.982,0,50.544,26.292,50.544,50.877v85.062h-20.637c-5.41,0-9.059-4.53-9.059-9.059v-69.459c0-13.627-8.35-30.179-27.66-30.179
			c-20.835,0-33.243,19.692-33.243,38.231v70.465H-252.11z"/>
		<path id="path833" inkscape:connector-curvature="0" sodipodi:nodetypes="ssscssccccssscss" d="M-53.8,432.604
			c-31.516,0-63.922,25.254-63.922,69.459c0,40.411,28.492,68.956,63.922,68.956c29.246,0,42.28-19.631,42.28-19.631v8.558
			c0,4.045,3.823,8.556,8.556,8.556h21.14V369.184H-11.52v83.301C-11.52,452.485-24.664,432.604-53.8,432.604L-53.8,432.604z
			 M-48.51,459.775c25.944,0,39.552,22.815,39.552,42.277c0,21.678-16.157,42.264-39.498,42.264
			c-19.51,0-39.054-15.802-39.054-42.549C-87.51,477.621-70.691,459.775-48.51,459.775z"/>
		<path id="path835" inkscape:connector-curvature="0" sodipodi:nodetypes="cccccccccccc" d="M59.448,568.502
			c-4.562,0-8.557-3.273-8.557-8.556V435.624h29.696v22.146c5.112-12.406,16.141-23.656,35.737-23.656
			c5.462,0,10.57,1.006,10.57,1.006v30.703c0,0-6.378-2.516-14.093-2.516c-20.836,0-32.213,19.691-32.213,38.23v66.964H59.448z"/>
		<path id="path837" inkscape:connector-curvature="0" sodipodi:nodetypes="cccccc" d="M307.084,568.502
			c-4.562,0-8.558-3.273-8.558-8.556V435.624h29.698v132.878H307.084z"/>
		<path id="path839" inkscape:connector-curvature="0" sodipodi:nodetypes="ssscssccccssscss" d="M415.3,432.604
			c-31.517,0-63.923,25.254-63.923,69.459c0,40.411,28.492,68.956,63.923,68.956c29.244,0,42.278-19.631,42.278-19.631v8.558
			c0,4.045,3.825,8.556,8.556,8.556h21.142V369.184h-29.698v83.301C457.578,452.485,444.436,432.604,415.3,432.604L415.3,432.604z
			 M420.589,459.775c25.944,0,39.553,22.815,39.553,42.277c0,21.678-16.159,42.264-39.498,42.264
			c-19.511,0-39.056-15.802-39.056-42.549C381.588,477.621,398.408,459.775,420.589,459.775z"/>
		<path id="path841" d="M313.141,367.682c10.849,0,19.641,8.792,19.641,19.639c0,10.848-8.792,19.642-19.641,19.642
			c-10.847,0-19.639-8.794-19.639-19.642C293.502,376.475,302.294,367.682,313.141,367.682z"/>
		<path id="path843" inkscape:connector-curvature="0" d="M205.21,432.559c-33.006,0-69.268,24.638-69.268,69.268
			c0,40.669,30.886,69.196,69.196,69.196c47.211,0,70.263-37.953,70.263-68.938C275.403,464.062,245.719,432.559,205.21,432.559
			L205.21,432.559z M205.318,460.291c22.824,0,39.848,18.396,39.848,41.619c0,23.627-18.073,41.857-39.78,41.857
			c-20.152,0-39.742-16.399-39.742-41.459C165.645,476.829,184.276,460.291,205.318,460.291L205.318,460.291z"/>
	</g>
</g>
</svg>
