<?xml version="1.0" encoding="UTF-8"?><svg id="Layer_1" xmlns="http://www.w3.org/2000/svg" width="9cm" height="9cm" viewBox="0 0 255.9 255.9"><defs><style>.cls-1{fill:#fff;}.cls-2{fill:#672a7a;}</style></defs><rect class="cls-2" width="255.9" height="255.9"/><path class="cls-1" d="m164.7,97.8c1.3-1.2,2-2.6,2-4.4s-.5-2.9-1.6-3.9c-.8-.8-2.1-1.6-4-2.4-1.6-.7-2.7-1.3-3.2-1.8-.6-.5-.9-1.3-.9-2.2s.3-1.6,1-2.2c.7-.6,1.6-.8,2.7-.8,1.8,0,3.4.5,4.9,1.5v-3.5c-1.4-.7-2.9-1-4.6-1s-4,.6-5.4,1.8c-1.4,1.2-2.1,2.7-2.1,4.4s.5,2.9,1.4,3.9c.8.8,2,1.6,3.8,2.4,1.7.8,2.9,1.4,3.5,2,.6.5.9,1.2.9,2.1,0,2-1.4,3-4.1,3s-3.9-.7-5.6-2.1v3.7c1.5.9,3.3,1.3,5.3,1.3s4.4-.6,5.9-1.9Z"/><path class="cls-1" d="m196.9,99.2h3.4v-18.5h5v-2.9h-5v-3.3c0-3,1.2-4.5,3.6-4.5s1.6.2,2.3.6v-3.1c-.6-.2-1.4-.4-2.5-.4-1.8,0-3.4.6-4.6,1.7-1.5,1.3-2.2,3.2-2.2,5.5v3.5h-3.6v2.9h3.6v18.5Z"/><path class="cls-1" d="m87.7,72.3c.6,0,1.2-.2,1.6-.7.4-.4.7-1,.7-1.6s-.2-1.1-.7-1.6c-.4-.4-1-.6-1.6-.6s-1.1.2-1.6.6c-.4.4-.7,1-.7,1.6s.2,1.2.7,1.6c.4.4,1,.6,1.6.6Z"/><path class="cls-1" d="m104.8,99.7c2.3,0,4.2-.5,5.9-1.5v-3.3c-1.6,1.2-3.4,1.8-5.3,1.8s-4-.7-5.3-2.2c-1.3-1.5-2-3.4-2-5.9s.7-4.7,2.2-6.2c1.4-1.5,3.1-2.3,5.3-2.3s3.5.6,5.1,1.7v-3.5c-1.4-.7-3.1-1.1-5-1.1-3.4,0-6.1,1.1-8.1,3.2-2,2.2-3,5-3,8.5s.9,5.7,2.8,7.7c1.9,2,4.4,3.1,7.4,3.1Z"/><path class="cls-1" d="m226.7,79.5h.7c.5,0,.9.4,1.3,1.3l.8,1.7h1.2l-1-1.9c-.4-.8-.8-1.2-1.2-1.3h0c.6-.2,1-.4,1.4-.7.3-.3.5-.8.5-1.3s-.2-1-.6-1.4c-.5-.4-1.2-.6-2.1-.6h-2v7.3h1v-3Zm0-3.3h.9c.6,0,1.1.1,1.3.3.2.2.3.5.3.9,0,.8-.5,1.2-1.5,1.2h-1.1v-2.5Z"/><path class="cls-1" d="m210.9,93.3c0,4.2,1.9,6.3,5.6,6.3s2.4-.2,3.2-.7v-2.9c-.6.5-1.4.7-2.2.7s-2-.3-2.4-.9c-.5-.6-.7-1.6-.7-3.1v-12.1h5.4v-2.9h-5.4v-6.3c-1.2.4-2.3.8-3.4,1.1v5.2h-3.7v2.9h3.7v12.7Z"/><path class="cls-1" d="m227.9,84.6c1.6,0,3-.5,4.1-1.6,1.1-1.1,1.7-2.4,1.7-4s-.6-3-1.7-4.1c-1.1-1-2.4-1.6-4-1.6s-3,.6-4.1,1.6c-1.1,1.1-1.6,2.4-1.6,4s.5,3,1.6,4c1.1,1.1,2.4,1.6,4.1,1.6Zm-3.6-9.2c1-1,2.2-1.4,3.6-1.4s2.6.5,3.6,1.4c1,1,1.5,2.2,1.5,3.6s-.5,2.6-1.5,3.6c-1,1-2.2,1.5-3.6,1.5s-2.6-.5-3.6-1.4c-1-1-1.5-2.2-1.5-3.6s.5-2.6,1.4-3.6Z"/><rect class="cls-1" x="85.9" y="77.8" width="3.4" height="21.4"/><path class="cls-1" d="m139,99.7c3.3,0,5.9-1,7.8-3.1,1.9-2.1,2.9-4.8,2.9-8.2s-.9-6.2-2.7-8.2c-1.8-2-4.3-3-7.5-3s-5.8,1-7.8,2.8c-2.1,2-3.1,4.9-3.1,8.6s.9,5.9,2.8,7.9c1.9,2.1,4.4,3.1,7.6,3.1Zm-4.9-17.4c1.3-1.4,3-2.1,5.1-2.1s3.8.7,5,2.1c1.2,1.4,1.9,3.5,1.9,6.3s-.6,4.6-1.7,6.1c-1.2,1.5-2.9,2.2-5.2,2.2s-3.9-.7-5.2-2.2c-1.3-1.4-1.9-3.4-1.9-6s.7-4.8,2-6.3Z"/><path class="cls-1" d="m188.2,96.6c1.9-2.1,2.9-4.8,2.9-8.2s-.9-6.2-2.7-8.2c-1.8-2-4.3-3-7.5-3s-5.8,1-7.8,2.8c-2.1,2-3.1,4.9-3.1,8.6s.9,5.9,2.8,7.9c1.9,2.1,4.4,3.1,7.7,3.1s5.9-1,7.8-3.1Zm-14.7-8c0-2.7.7-4.8,2-6.3,1.3-1.4,3-2.1,5.1-2.1s3.8.7,5,2.1c1.2,1.4,1.9,3.5,1.9,6.3s-.6,4.6-1.7,6.1c-1.2,1.5-2.9,2.2-5.2,2.2s-3.9-.7-5.2-2.2c-1.3-1.4-1.9-3.4-1.9-6Z"/><polygon class="cls-1" points="137.9 151.9 166.2 151.9 166.2 143.5 137.9 143.5 137.9 117.4 168.5 117.4 168.5 109 128.6 109 128.6 187.7 170.3 187.7 170.3 179.3 137.9 179.3 137.9 151.9"/><polygon class="cls-1" points="179 117.4 201.6 117.4 201.6 187.7 210.9 187.7 210.9 117.4 233.5 117.4 233.5 109 179 109 179 117.4"/><path class="cls-1" d="m28.3,176.5c-1.7,0-3.1.6-4.3,1.8-1.2,1.2-1.8,2.7-1.8,4.4s.6,3.1,1.8,4.4c1.2,1.2,2.6,1.8,4.3,1.8s3.2-.6,4.4-1.8c1.2-1.2,1.8-2.7,1.8-4.4s-.6-3.1-1.8-4.4c-1.2-1.2-2.7-1.8-4.4-1.8Z"/><path class="cls-1" d="m121.7,78.6c-1,.9-1.8,2.1-2.3,3.6h0v-4.4h-3.4v21.4h3.4v-10.9c0-2.5.5-4.4,1.6-5.8.9-1.3,2.1-1.9,3.5-1.9s2,.2,2.6.7v-3.6c-.5-.2-1.1-.3-2.1-.3s-2.3.4-3.3,1.2Z"/><polygon class="cls-1" points="51.2 73.2 51.2 73.2 62.4 99.2 64.1 99.2 75.2 73.2 75.3 73.2 75 99.2 78.5 99.2 78.5 69.2 74.1 69.2 63.3 93.7 63.1 93.7 52.6 69.2 47.9 69.2 47.9 99.2 51.3 99.2 51.2 73.2"/><polygon class="cls-1" points="102.1 175.4 59.9 109 47.9 109 47.9 187.7 57.1 187.7 57.1 120.2 100.1 187.7 111.2 187.7 111.2 109 102.1 109 102.1 175.4"/></svg>